<svg xmlns="http://www.w3.org/2000/svg" width="24" height="24" viewBox="296 16 24 24"
     fill="none" stroke="currentColor" stroke-width="2" stroke-linecap="round" stroke-linejoin="round">
  <path d="M310.5 20H305.5L303 23H300C299.47 23 298.961 23.2107 298.586 23.5858C298.211 23.9609 298 24.4696 298 25V34C298 34.5304 298.211 35.0391 298.586 35.4142C298.961 35.7893 299.47 36 300 36H316C316.53 36 317.039 35.7893 317.414 35.4142C317.789 35.0391 318 34.5304 318 34V25C318 24.4696 317.789 23.9609 317.414 23.5858C317.039 23.2107 316.53 23 316 23H313L310.5 20Z"/>
  <path d="M308 32C309.657 32 311 30.6569 311 29C311 27.3431 309.657 26 308 26C306.343 26 305 27.3431 305 29C305 30.6569 306.343 32 308 32Z"/>
</svg>
