<svg xmlns="http://www.w3.org/2000/svg" width="24" height="24" viewBox="240 72 24 24"
     fill="none" stroke="currentColor" stroke-width="2" stroke-linecap="round" stroke-linejoin="round">
  <path d="M255 74H249C248.448 74 248 74.4477 248 75V77C248 77.5523 248.448 78 249 78H255C255.552 78 256 77.5523 256 77V75C256 74.4477 255.552 74 255 74Z"/>
  <path d="M256 76H258C258.53 76 259.039 76.2107 259.414 76.5858C259.789 76.9609 260 77.4696 260 78V92C260 92.5304 259.789 93.0391 259.414 93.4142C259.039 93.7893 258.53 94 258 94H246C245.47 94 244.961 93.7893 244.586 93.4142C244.211 93.0391 244 92.5304 244 92V78C244 77.4696 244.211 76.9609 244.586 76.5858C244.961 76.2107 245.47 76 246 76H248"/>
  <path d="M252 83H256"/>
  <path d="M252 88H256"/>
  <path d="M248 83H248.01"/>
  <path d="M248 88H248.01"/>
</svg>
