<svg xmlns="http://www.w3.org/2000/svg" width="24" height="24" viewBox="352 72 24 24"
     fill="none" stroke="currentColor" stroke-width="2" stroke-linecap="round" stroke-linejoin="round">
  <path d="M364 85V93"/>
  <path d="M356 86.899C355.257 86.1399 354.697 85.2217 354.361 84.2139C354.026 83.2062 353.924 82.1352 354.063 81.0823C354.203 80.0294 354.581 79.022 355.167 78.1365C355.754 77.2511 356.534 76.5107 357.449 75.9715C358.365 75.4324 359.39 75.1086 360.449 75.0246C361.508 74.9406 362.572 75.0987 363.561 75.4869C364.55 75.875 365.437 76.4831 366.156 77.265C366.875 78.047 367.406 78.9822 367.71 80H369.5C370.466 79.9999 371.406 80.3103 372.181 80.8854C372.957 81.4606 373.527 82.2699 373.807 83.1938C374.087 84.1177 374.063 85.1073 373.737 86.0164C373.412 86.9254 372.803 87.7057 372 88.242"/>
  <path d="M360 89L364 85L368 89"/>
</svg>
