<svg xmlns="http://www.w3.org/2000/svg" width="24" height="24" viewBox="184 184 24 24"
     fill="none" stroke="currentColor" stroke-width="2" stroke-linecap="round" stroke-linejoin="round">
  <path d="M193 201H191C189.674 201 188.402 200.473 187.464 199.536C186.527 198.598 186 197.326 186 196C186 194.674 186.527 193.402 187.464 192.464C188.402 191.527 189.674 191 191 191H193"/>
  <path d="M199 191H201C202.326 191 203.598 191.527 204.536 192.464C205.473 193.402 206 194.674 206 196C206 197.326 205.473 198.598 204.536 199.536C203.598 200.473 202.326 201 201 201H199"/>
  <path d="M192 196H200"/>
</svg>
